<svg width="16" height="16" viewBox="0 0 16 16" fill="none" xmlns="http://www.w3.org/2000/svg">
<path d="M15 8C15 9.5 13 13 8 13C3 13 1 9.5 1 8C1 6.5 3 3 8 3C13 3 15 6.5 15 8Z" fill="white" stroke="black" stroke-width="1.2"/>
<path fill-rule="evenodd" clip-rule="evenodd" d="M10.4887 8.23893C10.1971 8.4051 9.85965 8.50002 9.5 8.50002C8.39543 8.50002 7.5 7.60459 7.5 6.50002C7.5 6.14038 7.59493 5.8029 7.7611 5.51129C6.49245 5.63156 5.5 6.69989 5.5 8.00002C5.5 9.38074 6.61929 10.5 8 10.5C9.30013 10.5 10.3685 9.50758 10.4887 8.23893Z" fill="black"/>
<path d="M10.4887 8.23893L11.106 8.29745C11.1278 8.0671 11.0196 7.84377 10.8252 7.71819C10.6309 7.59261 10.3828 7.5857 10.1818 7.70025L10.4887 8.23893ZM7.7611 5.51129L8.29978 5.81824C8.41433 5.61722 8.40741 5.36913 8.28184 5.17479C8.15626 4.98046 7.93292 4.87222 7.70258 4.89406L7.7611 5.51129ZM10.1818 7.70025C9.98122 7.81453 9.7492 7.88002 9.5 7.88002V9.12002C9.97009 9.12002 10.413 8.99567 10.7957 8.77761L10.1818 7.70025ZM9.5 7.88002C8.73785 7.88002 8.12 7.26218 8.12 6.50002H6.88C6.88 7.94701 8.05301 9.12002 9.5 9.12002V7.88002ZM8.12 6.50002C8.12 6.25083 8.1855 6.0188 8.29978 5.81824L7.22241 5.20434C7.00436 5.58701 6.88 6.02993 6.88 6.50002H8.12ZM6.12 8.00002C6.12 7.02268 6.86625 6.21891 7.81961 6.12852L7.70258 4.89406C6.11865 5.04422 4.88 6.37711 4.88 8.00002H6.12ZM8 9.88002C6.9617 9.88002 6.12 9.03832 6.12 8.00002H4.88C4.88 9.72315 6.27687 11.12 8 11.12V9.88002ZM9.8715 8.18041C9.78112 9.13377 8.97734 9.88002 8 9.88002V11.12C9.62292 11.12 10.9558 9.88138 11.106 8.29745L9.8715 8.18041Z" fill="black"/>
</svg>
