<svg width="24" height="24" viewBox="0 0 24 24" fill="none" xmlns="http://www.w3.org/2000/svg">
<path d="M2.5 6.2C2.5 4.43269 3.93269 3 5.7 3H18.3C20.0673 3 21.5 4.43269 21.5 6.2V15.8C21.5 17.5673 20.0673 19 18.3 19H15.4142C15.149 19 14.8946 19.1054 14.7071 19.2929L12.99 21.01C12.4432 21.5568 11.5568 21.5568 11.0101 21.01L9.29289 19.2929C9.10536 19.1054 8.851 19 8.58579 19H5.7C3.93269 19 2.5 17.5673 2.5 15.8V6.2Z" fill="white" stroke="black" stroke-width="1.5" stroke-linecap="round" stroke-linejoin="round"/>
<path d="M9 9.49992V9.08394C9 8.70313 9.11272 8.33084 9.32396 8.01398L9.41258 7.88105C10.5937 6.10937 13.2312 6.21613 14.2653 8.07746C14.4192 8.35452 14.5 8.66625 14.5 8.9832V9.10373C14.5 9.94698 13.9866 10.7053 13.2037 11.0184L12.7715 11.1913C12.3055 11.3777 12 11.829 12 12.3308V12.9999" stroke="black" stroke-width="1.5" stroke-linecap="round" stroke-linejoin="round"/>
<path d="M11.5 16C11.5 15.7239 11.7239 15.5 12 15.5C12.2761 15.5 12.5 15.7239 12.5 16C12.5 16.2761 12.2761 16.5 12 16.5C11.7239 16.5 11.5 16.2761 11.5 16Z" stroke="black" stroke-linecap="round" stroke-linejoin="round"/>
</svg>
