<svg width="24" height="24" viewBox="0 0 24 24" fill="none" xmlns="http://www.w3.org/2000/svg">
<g clip-path="url(#clip0_122_457)">
<path d="M12 23.25C18.2132 23.25 23.25 18.2132 23.25 12C23.25 5.7868 18.2132 0.75 12 0.75C5.7868 0.75 0.75 5.7868 0.75 12C0.75 18.2132 5.7868 23.25 12 23.25Z" fill="white" stroke="black" stroke-width="1.5"/>
<path d="M12 0C5.36974 0 0 5.27608 0 11.7907C0 17.0083 3.43513 21.415 8.20487 22.9765C8.80487 23.08 9.02922 22.7263 9.02922 22.4167C9.02922 22.1368 9.01461 21.2089 9.01461 20.2205C6 20.766 5.22052 19.4987 4.98052 18.8364C4.84487 18.497 4.26052 17.4502 3.74922 17.1703C3.32974 16.9489 2.72974 16.4034 3.73461 16.3891C4.68 16.3747 5.35513 17.2442 5.58052 17.5979C6.66052 19.3819 8.38539 18.8795 9.07513 18.5698C9.17948 17.804 9.49461 17.2882 9.84 16.993C7.16974 16.6987 4.38052 15.6816 4.38052 11.1714C4.38052 9.88983 4.84487 8.82867 5.60974 8.00332C5.48974 7.70804 5.07026 6.49924 5.72974 4.87827C5.72974 4.87827 6.73461 4.56864 9.03026 6.08708C9.99026 5.82153 11.0097 5.68927 12.0303 5.68927C13.0497 5.68927 14.0703 5.82255 15.0303 6.08708C17.3259 4.55429 18.3297 4.87827 18.3297 4.87827C18.9903 6.49924 18.5697 7.70804 18.4497 8.00332C19.2146 8.82867 19.68 9.87445 19.68 11.1714C19.68 15.696 16.8751 16.6977 14.2049 16.993C14.64 17.3621 15.0146 18.0695 15.0146 19.1748C15.0146 20.7516 15 22.0189 15 22.4167C15 22.7263 15.2254 23.0954 15.8243 22.9775C20.5659 21.415 24 16.993 24 11.7907C24 5.27608 18.6303 0 12 0Z" fill="black"/>
</g>
<defs>
<clipPath id="clip0_122_457">
<rect width="24" height="24" fill="white"/>
</clipPath>
</defs>
</svg>
