<svg width="90" height="91" viewBox="0 0 90 91" fill="none" xmlns="http://www.w3.org/2000/svg">
<path d="M89.0942 46.4454C89.0942 43.3491 88.8408 40.2642 88.3113 37.2114H45.444V54.6983H69.9935C68.9786 60.3401 65.703 65.331 60.9173 68.4937V79.8543H75.5734C84.1536 71.9647 89.0942 60.2737 89.0942 46.4454Z" fill="#4285F4"/>
<path d="M45.4444 90.8291C57.7084 90.8291 68.042 86.8072 75.5738 79.8653L60.9177 68.5046C56.8371 71.2706 51.5875 72.8462 45.4444 72.8462C33.5893 72.8462 23.5312 64.8582 19.9252 54.1034H4.83871V65.8051C12.5582 81.1548 28.2627 90.8291 45.4444 90.8291Z" fill="#34A853"/>
<path d="M19.9362 54.1031C18.0287 48.4728 18.0287 42.3572 19.9362 36.7162V25.0251H4.83908C-1.61303 37.8614 -1.61303 52.9792 4.83908 65.8162L19.9362 54.1031Z" fill="#FBBC04"/>
<path d="M45.4444 17.9846C51.9293 17.8855 58.1823 20.321 62.8802 24.7946L75.8607 11.8362C67.6338 4.12361 56.7379 -0.118788 45.4444 0.00253212C28.2627 0.00253212 12.5475 9.68756 4.83871 25.0258L19.9358 36.7275C23.5312 25.962 33.5893 17.9846 45.4444 17.9846Z" fill="#EA4335"/>
</svg>
