<svg width="24" height="24" viewBox="0 0 24 24" fill="none" xmlns="http://www.w3.org/2000/svg">
<path d="M2.5 10.3C2.5 8.20132 4.20132 6.5 6.3 6.5H17.7C19.7987 6.5 21.5 8.20132 21.5 10.3V18.2C21.5 20.2987 19.7987 22 17.7 22H6.3C4.20132 22 2.5 20.2987 2.5 18.2V10.3Z" fill="white" stroke="black" stroke-width="1.5" stroke-linejoin="round"/>
<path d="M17 6.00006L16.7821 4.91058C16.6077 4.03835 15.9792 3.32647 15.1354 3.04518C13.1002 2.36678 10.8998 2.36678 8.86464 3.04518C8.02078 3.32647 7.39234 4.03835 7.2179 4.91058L7 6.00006" stroke="black" stroke-width="1.5" stroke-linecap="round" stroke-linejoin="round"/>
<path d="M18.488 12.0693C18.8025 11.7998 18.8389 11.3263 18.5693 11.0118C18.2998 10.6973 17.8263 10.6609 17.5118 10.9305L18.488 12.0693ZM2.00366 10.5623L3.5905 11.9624L4.58293 10.8377L2.9961 9.4375L2.00366 10.5623ZM3.5905 11.9624C7.83503 15.7076 14.1901 15.7532 18.488 12.0693L17.5118 10.9305C13.7819 14.1275 8.26658 14.0879 4.58293 10.8377L3.5905 11.9624Z" fill="black"/>
</svg>
