<svg width="24" height="24" viewBox="0 0 24 24" fill="none" xmlns="http://www.w3.org/2000/svg">
<path d="M2.5 10.3C2.5 8.20132 4.20132 6.5 6.3 6.5H17.7C19.7987 6.5 21.5 8.20132 21.5 10.3V18.2C21.5 20.2987 19.7987 22 17.7 22H6.3C4.20132 22 2.5 20.2987 2.5 18.2V10.3Z" fill="#00F0A0" stroke="black" stroke-width="1.5" stroke-linejoin="round"/>
<path d="M17 6L16.7821 4.91052C16.6077 4.03829 15.9792 3.32641 15.1354 3.04512V3.04512C13.1002 2.36672 10.8998 2.36672 8.86464 3.04512V3.04512C8.02078 3.32641 7.39234 4.03829 7.2179 4.91052L7 6" stroke="black" stroke-width="1.5" stroke-linecap="round" stroke-linejoin="round"/>
<path d="M18.4881 12.0694C18.8026 11.7999 18.839 11.3264 18.5694 11.0119C18.2999 10.6974 17.8264 10.661 17.5119 10.9306L18.4881 12.0694ZM2.00378 10.5624L3.59062 11.9625L4.58305 10.8378L2.99622 9.43762L2.00378 10.5624ZM3.59062 11.9625C7.83515 15.7077 14.1902 15.7533 18.4881 12.0694L17.5119 10.9306C13.782 14.1276 8.2667 14.088 4.58305 10.8378L3.59062 11.9625Z" fill="black"/>
</svg>
