<svg width="20" height="20" viewBox="0 0 20 20" fill="none" xmlns="http://www.w3.org/2000/svg">
<path d="M2.31078 8.78944C2.05602 5.4775 4.13017 2.43114 7.30499 1.45426L7.74242 1.31968C9.21347 0.867036 10.7866 0.867035 12.2577 1.31966L12.6952 1.45426C15.8699 2.43113 17.9442 5.47753 17.6893 8.78946C17.5668 10.3831 16.9103 11.8889 15.8262 13.0634L11.1823 18.0943C10.5452 18.7844 9.45492 18.7844 8.81785 18.0943L4.17394 13.0634C3.08978 11.8889 2.43337 10.3831 2.31078 8.78944Z" fill="white" stroke="black" stroke-width="1.2" stroke-linecap="round" stroke-linejoin="round"/>
<path d="M8.75 8.75C8.75 8.05965 9.30965 7.5 10 7.5C10.6904 7.5 11.25 8.05965 11.25 8.75C11.25 9.44035 10.6904 10 10 10C9.30965 10 8.75 9.44035 8.75 8.75Z" fill="black"/>
</svg>
