<svg width="152" height="52" viewBox="0 0 152 52" fill="none" xmlns="http://www.w3.org/2000/svg">
<path d="M142.053 24.103C142.053 24.5496 142.023 25.0834 141.965 25.7046C141.907 26.3065 141.839 26.918 141.761 27.5392C141.703 28.141 141.645 28.7137 141.587 29.2573C141.528 29.7814 141.499 30.1891 141.499 30.4803C141.499 31.218 141.674 31.7713 142.023 32.1402C142.392 32.4896 142.839 32.6643 143.363 32.6643C144.275 32.6643 145.003 32.1887 145.547 31.2374C146.091 30.2862 146.43 29.0243 146.566 27.4518L147.032 22.0064C147.051 21.7929 147.119 21.6473 147.236 21.5696C147.372 21.4725 147.517 21.424 147.673 21.424H148.721C149.129 21.424 149.507 21.4628 149.857 21.5405C150.226 21.5987 150.546 21.7249 150.818 21.919C151.089 22.0938 151.303 22.3364 151.458 22.647C151.614 22.9577 151.691 23.3556 151.691 23.841C151.691 24.0351 151.672 24.404 151.633 24.9475C151.614 25.4717 151.565 26.2385 151.487 27.248C151.429 28.2381 151.342 29.5 151.225 31.0336C151.109 32.5478 150.973 34.4018 150.818 36.5955C150.721 37.8768 150.429 38.9348 149.944 39.7696C149.478 40.6238 148.886 41.2936 148.168 41.7789C147.449 42.2836 146.644 42.6331 145.751 42.8272C144.858 43.0213 143.945 43.1184 143.014 43.1184C142.023 43.1184 141.111 43.031 140.276 42.8563C139.461 42.6816 138.752 42.4389 138.15 42.1283C137.549 41.8177 137.073 41.4586 136.724 41.0509C136.394 40.6432 136.229 40.2064 136.229 39.7405C136.229 39.3716 136.306 39.0513 136.462 38.7795C136.636 38.5077 136.859 38.2845 137.131 38.1098C137.403 37.935 137.714 37.7992 138.063 37.7021C138.432 37.6244 138.811 37.5856 139.199 37.5856C139.393 37.5856 139.529 37.6827 139.606 37.8768C139.704 38.0709 139.839 38.2845 140.014 38.5174C140.208 38.7698 140.509 38.9931 140.917 39.1872C141.325 39.3813 141.936 39.4784 142.751 39.4784C143.47 39.4784 144.052 39.3037 144.499 38.9542C144.945 38.6048 145.285 38.1583 145.518 37.6147C145.77 37.0712 145.935 36.479 146.013 35.8384C146.091 35.1978 146.129 34.5862 146.129 34.0038C145.819 34.5474 145.469 34.9939 145.081 35.3434C144.712 35.6734 144.324 35.9355 143.916 36.1296C143.509 36.3043 143.101 36.4208 142.693 36.479C142.286 36.5373 141.897 36.5664 141.528 36.5664C140.81 36.5664 140.15 36.4693 139.548 36.2752C138.966 36.0811 138.461 35.7705 138.034 35.3434C137.607 34.8969 137.277 34.3242 137.044 33.6253C136.811 32.9264 136.694 32.0819 136.694 31.0918C136.694 30.723 136.714 30.2377 136.753 29.6358C136.792 29.0146 136.84 28.3254 136.898 27.5683C136.957 26.7918 137.015 25.957 137.073 25.064C137.151 24.171 137.228 23.2586 137.306 22.3267C137.345 21.7249 137.617 21.424 138.121 21.424H139.053C139.674 21.424 140.179 21.4822 140.567 21.5987C140.956 21.7152 141.257 21.8899 141.47 22.1229C141.703 22.3364 141.858 22.6179 141.936 22.9674C142.014 23.2974 142.053 23.676 142.053 24.103Z" fill="black"/>
<path d="M128.798 27.3645C128.759 27.9469 128.711 28.5778 128.652 29.2573C128.594 29.9367 128.536 30.6259 128.478 31.3248C128.419 32.0043 128.361 32.674 128.303 33.3341C128.264 33.9941 128.225 34.5765 128.186 35.0813C128.148 35.586 128.109 36.0034 128.07 36.3334C128.051 36.6635 128.041 36.8382 128.041 36.8576C128.021 37.0906 127.973 37.2459 127.895 37.3235C127.818 37.4012 127.653 37.44 127.4 37.44H126.352C125.304 37.44 124.566 37.1973 124.139 36.712C123.731 36.2073 123.527 35.4598 123.527 34.4698C123.527 34.3533 123.537 34.0621 123.556 33.5962C123.595 33.1302 123.634 32.577 123.673 31.9363C123.731 31.2763 123.789 30.5483 123.848 29.7523C123.906 28.9564 123.964 28.1604 124.022 27.3645H122.654C122.44 27.3645 122.333 27.2577 122.333 27.0442C122.333 26.8889 122.343 26.6656 122.362 26.3744C122.382 26.0638 122.401 25.7629 122.421 25.4717C122.44 25.2387 122.469 25.0058 122.508 24.7728C122.566 24.5204 122.654 24.3069 122.77 24.1322C122.906 23.938 123.1 23.7827 123.352 23.6662C123.605 23.5303 123.935 23.4527 124.343 23.4333L124.459 22.2685C124.576 21.0066 124.808 19.9486 125.158 19.0944C125.527 18.2402 126.002 17.5607 126.585 17.056C127.167 16.5318 127.856 16.163 128.652 15.9494C129.468 15.7165 130.37 15.6 131.36 15.6C132.331 15.6 133.156 15.6874 133.836 15.8621C134.535 16.0368 135.098 16.2795 135.525 16.5901C135.952 16.9007 136.262 17.2695 136.457 17.6966C136.651 18.1237 136.748 18.5799 136.748 19.0653C136.748 20.0748 136.427 20.7931 135.787 21.2202C135.166 21.6473 134.321 21.8608 133.253 21.8608C132.962 21.8608 132.758 21.8414 132.642 21.8026C132.545 21.7443 132.496 21.6278 132.496 21.4531C132.496 20.8125 132.438 20.3077 132.321 19.9389C132.205 19.57 131.885 19.3856 131.36 19.3856C130.972 19.3856 130.642 19.5021 130.37 19.735C130.099 19.968 129.875 20.2786 129.701 20.6669C129.526 21.0357 129.39 21.4628 129.293 21.9482C129.215 22.4335 129.147 22.9285 129.089 23.4333H132.438C132.749 23.4333 132.904 23.5692 132.904 23.841L132.787 25.4134C132.749 25.9958 132.584 26.4715 132.292 26.8403C132.021 27.1898 131.448 27.3645 130.574 27.3645H128.798Z" fill="black"/>
<path d="M116.997 37.44C116.395 37.44 115.9 37.3818 115.512 37.2653C115.143 37.1294 114.842 36.945 114.609 36.712C114.396 36.479 114.24 36.1976 114.143 35.8675C114.066 35.5181 114.027 35.1201 114.027 34.6736C114.027 34.3824 114.037 33.9747 114.056 33.4506C114.095 32.907 114.153 32.1693 114.231 31.2374C114.308 30.2862 114.396 29.0923 114.493 27.6557C114.609 26.1997 114.745 24.4039 114.9 22.2685C114.92 21.8414 114.968 21.589 115.046 21.5114C115.104 21.4531 115.26 21.424 115.512 21.424H116.648C117.249 21.424 117.735 21.4822 118.104 21.5987C118.492 21.7152 118.793 21.8899 119.006 22.1229C119.239 22.3558 119.395 22.6373 119.472 22.9674C119.569 23.2974 119.618 23.6662 119.618 24.0739C119.618 24.3651 119.598 24.8019 119.56 25.3843C119.521 25.9667 119.463 26.7627 119.385 27.7722C119.327 28.7622 119.239 30.0047 119.123 31.4995C119.006 32.9749 118.861 34.761 118.686 36.8576C118.667 37.0906 118.618 37.2459 118.54 37.3235C118.463 37.4012 118.298 37.44 118.045 37.44H116.997ZM114.93 17.9878C114.93 17.2113 115.211 16.5998 115.774 16.1533C116.337 15.7068 117.094 15.4835 118.045 15.4835C118.88 15.4835 119.482 15.6582 119.851 16.0077C120.239 16.3377 120.433 16.7842 120.433 17.3472C120.433 18.0655 120.161 18.6673 119.618 19.1526C119.094 19.6186 118.317 19.8515 117.288 19.8515C115.716 19.8515 114.93 19.2303 114.93 17.9878Z" fill="black"/>
<path d="M102.623 37.7312C101.128 37.7312 99.9441 37.5176 99.0705 37.0906C98.1969 36.644 97.5369 36.0908 97.0904 35.4307C96.6438 34.7707 96.3624 34.0621 96.2459 33.305C96.1294 32.5284 96.0712 31.8198 96.0712 31.1792C96.0712 30.9268 96.0906 30.4318 96.1294 29.6941C96.1876 28.9564 96.2556 28.1022 96.3332 27.1315C96.4109 26.1608 96.4885 25.1319 96.5662 24.0448C96.6438 22.9382 96.7215 21.8996 96.7992 20.929C96.8768 19.9389 96.935 19.0653 96.9739 18.3082C97.0321 17.551 97.0612 17.0269 97.0612 16.7357C97.0612 16.3086 97.0904 16.0659 97.1486 16.0077C97.2068 15.93 97.3816 15.8912 97.6728 15.8912H98.8084C99.3908 15.8912 99.8762 15.9591 100.264 16.095C100.653 16.2309 100.963 16.4154 101.196 16.6483C101.429 16.8813 101.594 17.1531 101.691 17.4637C101.788 17.7549 101.837 18.0752 101.837 18.4246C101.837 18.7547 101.798 19.3953 101.72 20.3466C101.662 21.2978 101.585 22.4141 101.487 23.6954C101.992 22.8218 102.565 22.1811 103.206 21.7734C103.846 21.3463 104.691 21.1328 105.739 21.1328C107.506 21.1328 108.855 21.7152 109.787 22.88C110.738 24.0448 111.214 25.7823 111.214 28.0925C111.214 28.6943 111.165 29.3543 111.068 30.0726C110.99 30.7909 110.835 31.5092 110.602 32.2275C110.388 32.9264 110.078 33.6156 109.67 34.295C109.282 34.9551 108.767 35.5375 108.127 36.0422C107.486 36.547 106.71 36.9547 105.797 37.2653C104.904 37.5759 103.846 37.7312 102.623 37.7312ZM103.934 25.0058C103.235 25.0058 102.681 25.1902 102.274 25.559C101.885 25.9279 101.585 26.3744 101.371 26.8986C101.157 27.4227 101.022 27.9857 100.963 28.5875C100.905 29.1699 100.876 29.6844 100.876 30.1309C100.876 31.4704 101.06 32.4314 101.429 33.0138C101.798 33.5767 102.351 33.8582 103.089 33.8582C103.788 33.8582 104.332 33.6447 104.72 33.2176C105.127 32.7711 105.428 32.2469 105.623 31.6451C105.836 31.0433 105.972 30.4318 106.03 29.8106C106.088 29.1893 106.118 28.704 106.118 28.3546C106.118 27.2674 105.953 26.4423 105.623 25.8794C105.292 25.297 104.729 25.0058 103.934 25.0058Z" fill="black"/>
<path d="M84.4914 37.7312C83.1519 37.7312 82.0356 37.5468 81.1426 37.1779C80.269 36.7897 79.5701 36.2655 79.046 35.6054C78.5218 34.9454 78.1529 34.1786 77.9394 33.305C77.7259 32.412 77.6191 31.4607 77.6191 30.4512C77.6191 29.2864 77.755 28.1507 78.0268 27.0442C78.318 25.9182 78.8033 24.9184 79.4828 24.0448C80.1622 23.1712 81.0552 22.4723 82.1618 21.9482C83.2878 21.4046 84.6855 21.1328 86.3551 21.1328C88.8012 21.1328 90.5484 21.7346 91.5967 22.9382C92.6644 24.1225 93.1983 25.792 93.1983 27.9469C93.1983 28.5487 93.1497 29.2185 93.0527 29.9562C92.975 30.6745 92.81 31.3928 92.5576 32.111C92.3247 32.8293 91.9947 33.5282 91.5676 34.2077C91.1599 34.8872 90.6357 35.489 89.9951 36.0131C89.3544 36.5373 88.5779 36.9547 87.6655 37.2653C86.7725 37.5759 85.7144 37.7312 84.4914 37.7312ZM85.86 25.0058C85.1223 25.0058 84.5302 25.1999 84.0837 25.5882C83.6566 25.957 83.3266 26.4132 83.0936 26.9568C82.8801 27.481 82.7345 28.044 82.6568 28.6458C82.5986 29.2282 82.5695 29.7232 82.5695 30.1309C82.5695 31.4122 82.7733 32.3537 83.181 32.9555C83.5887 33.5573 84.1711 33.8582 84.9282 33.8582C85.6077 33.8582 86.1609 33.6447 86.588 33.2176C87.0345 32.7905 87.3743 32.2761 87.6072 31.6742C87.8596 31.0724 88.0246 30.4415 88.1023 29.7814C88.1993 29.1214 88.2479 28.5681 88.2479 28.1216C88.2479 27.1509 88.0635 26.3938 87.6946 25.8502C87.3452 25.2873 86.7336 25.0058 85.86 25.0058Z" fill="black"/>
<path d="M67.2048 33.1885C67.6319 33.1885 67.9716 33.0332 68.224 32.7226C68.4958 32.4119 68.719 31.9946 68.8938 31.4704C69.0685 30.9462 69.2044 30.3444 69.3014 29.665C69.4179 28.9661 69.5247 28.2284 69.6218 27.4518C69.6606 27.1024 69.6994 26.6947 69.7382 26.2288C69.7771 25.7435 69.8159 25.1319 69.8547 24.3942C69.913 23.6371 69.9712 22.7053 70.0294 21.5987C70.1071 20.4727 70.1945 19.0944 70.2915 17.4637C70.3109 17.1919 70.3401 17.0075 70.3789 16.9104C70.4177 16.8133 70.5439 16.7648 70.7574 16.7648H72.359C73.0191 16.7648 73.5336 16.823 73.9024 16.9395C74.2907 17.056 74.5819 17.2016 74.776 17.3763C74.9701 17.551 75.0866 17.7452 75.1254 17.9587C75.1643 18.1528 75.1837 18.347 75.1837 18.5411C75.1837 18.7352 75.174 19.1818 75.1546 19.8806C75.1352 20.5795 75.106 21.3949 75.0672 22.3267C75.0284 23.2391 74.9701 24.2001 74.8925 25.2096C74.8342 26.2191 74.7663 27.1315 74.6886 27.9469C74.5722 29.0534 74.3877 30.1891 74.1354 31.3539C73.9024 32.4993 73.5141 33.5476 72.9706 34.4989C72.427 35.4501 71.699 36.2267 70.7866 36.8285C69.8936 37.4303 68.7288 37.7312 67.2922 37.7312C66.4962 37.7312 65.7779 37.6341 65.1373 37.44C64.5161 37.2459 63.9822 36.9838 63.5357 36.6538C63.1086 36.3043 62.7786 35.9063 62.5456 35.4598C62.3126 34.9939 62.1962 34.5086 62.1962 34.0038C62.1962 33.5379 62.2835 33.1205 62.4582 32.7517C62.6524 32.3634 62.9048 32.0431 63.2154 31.7907C63.526 31.5383 63.8754 31.3442 64.2637 31.2083C64.6714 31.0724 65.0888 31.0045 65.5158 31.0045C65.6323 31.0045 65.71 31.121 65.7488 31.3539C65.807 31.5675 65.875 31.8198 65.9526 32.111C66.0497 32.3828 66.1856 32.6352 66.3603 32.8682C66.535 33.0817 66.8165 33.1885 67.2048 33.1885Z" fill="black"/>
<path d="M0 26C0 11.6406 11.6406 0 26 0C40.3594 0 52 11.6406 52 26C52 40.3594 40.3594 52 26 52C11.6406 52 0 40.3594 0 26Z" fill="#00F0A0"/>
<path d="M27.0847 30.4403V9.94499H33.1581V30.4403C33.1581 32.4174 32.7248 34.1169 31.8581 35.5387C30.9915 36.9471 29.8066 38.0304 28.3034 38.7887C26.8139 39.5471 25.1347 39.9262 23.2659 39.9262C21.3295 39.9262 19.6165 39.6012 18.1269 38.9512C16.6373 38.3012 15.4659 37.3059 14.6128 35.9653C13.7597 34.6111 13.3331 32.8981 13.3331 30.8262H19.4472C19.4472 31.9096 19.5962 32.7695 19.8941 33.4059C20.2055 34.0424 20.6456 34.496 21.2144 34.7669C21.7831 35.0377 22.467 35.1731 23.2659 35.1731C24.0378 35.1731 24.7081 34.9903 25.2769 34.6247C25.8456 34.2591 26.2857 33.7242 26.5972 33.02C26.9222 32.3158 27.0847 31.4559 27.0847 30.4403Z" fill="white"/>
</svg>
