<svg width="24" height="24" viewBox="0 0 24 24" fill="none" xmlns="http://www.w3.org/2000/svg">
<path fill-rule="evenodd" clip-rule="evenodd" d="M9.52222 2.82617L11.4058 4.21776C11.759 4.47869 12.2411 4.47869 12.5942 4.21776L14.4778 2.82618C16.0998 3.26321 17.55 4.11894 18.7055 5.2703L18.4425 7.59431C18.3931 8.03064 18.6341 8.44813 19.0367 8.62352L21.1835 9.5589C21.39 10.3378 21.5 11.156 21.5 11.9999C21.5 12.8439 21.3899 13.6621 21.1834 14.4411L19.0367 15.3765C18.6341 15.5519 18.3931 15.9694 18.4425 16.4057L18.7054 18.7295C17.55 19.8809 16.0997 20.7366 14.4777 21.1736L12.5943 19.7821C12.2411 19.5212 11.759 19.5212 11.4058 19.7821L9.52236 21.1736C7.90036 20.7366 6.45009 19.8809 5.2946 18.7295L5.55759 16.4057C5.60697 15.9694 5.36593 15.5519 4.96338 15.3765L2.81659 14.4411C2.61005 13.6621 2.5 12.8439 2.5 11.9999C2.5 11.156 2.61003 10.3379 2.81652 9.55892L4.96337 8.62352C5.36593 8.44813 5.60696 8.03063 5.55758 7.59431L5.29457 5.27026C6.45003 4.11891 7.90026 3.26319 9.52222 2.82617Z" fill="white"/>
<path d="M9.52222 2.82617L9.96788 2.22295C9.78391 2.08702 9.54796 2.04249 9.3271 2.102L9.52222 2.82617ZM14.4778 2.82618L14.6729 2.10201C14.4521 2.0425 14.2161 2.08703 14.0322 2.22296L14.4778 2.82618ZM18.7055 5.27031L19.4507 5.35465C19.4765 5.12727 19.397 4.90057 19.2349 4.73904L18.7055 5.27031ZM21.1835 9.55891L21.9084 9.36671C21.8497 9.1453 21.6931 8.96284 21.4831 8.87134L21.1835 9.55891ZM21.1834 14.4411L21.483 15.1287C21.693 15.0372 21.8496 14.8548 21.9084 14.6333L21.1834 14.4411ZM18.7054 18.7295L19.2348 19.2608C19.3969 19.0992 19.4764 18.8725 19.4507 18.6451L18.7054 18.7295ZM14.4777 21.1736L14.0321 21.7768C14.216 21.9127 14.452 21.9573 14.6728 21.8978L14.4777 21.1736ZM9.52236 21.1736L9.32725 21.8978C9.54811 21.9573 9.78405 21.9128 9.96803 21.7768L9.52236 21.1736ZM5.2946 18.7295L4.54936 18.6452C4.52362 18.8726 4.60311 19.0993 4.76522 19.2608L5.2946 18.7295ZM2.81659 14.4411L2.09164 14.6333C2.15034 14.8547 2.30701 15.0372 2.51701 15.1287L2.81659 14.4411ZM2.81652 9.55893L2.51694 8.87136C2.30693 8.96287 2.15026 9.14532 2.09156 9.36675L2.81652 9.55893ZM5.29457 5.27027L4.76518 4.739C4.60308 4.90053 4.52359 5.12722 4.54932 5.35461L5.29457 5.27027ZM9.07656 3.4294L10.9601 4.82099L11.8515 3.61454L9.96788 2.22295L9.07656 3.4294ZM10.9601 4.82099C11.5782 5.27761 12.4218 5.27761 13.0399 4.82099L12.1486 3.61454C12.0603 3.67978 11.9398 3.67977 11.8515 3.61454L10.9601 4.82099ZM13.0399 4.82099L14.9235 3.42941L14.0322 2.22296L12.1486 3.61454L13.0399 4.82099ZM14.2827 3.55036C15.7753 3.95253 17.1111 4.74034 18.1761 5.80158L19.2349 4.73904C17.989 3.49756 16.4243 2.5739 14.6729 2.10201L14.2827 3.55036ZM19.1877 7.67866L19.4507 5.35465L17.9602 5.18597L17.6972 7.50997L19.1877 7.67866ZM19.3363 7.93596C19.2356 7.89211 19.1754 7.78773 19.1877 7.67866L17.6972 7.50997C17.6108 8.27354 18.0326 9.00415 18.7371 9.31109L19.3363 7.93596ZM21.4831 8.87134L19.3363 7.93596L18.7371 9.31109L20.8839 10.2465L21.4831 8.87134ZM20.4585 9.7511C20.6485 10.4679 20.75 11.2215 20.75 11.9999H22.25C22.25 11.0906 22.1314 10.2078 21.9084 9.36671L20.4585 9.7511ZM20.75 11.9999C20.75 12.7784 20.6485 13.5321 20.4585 14.2489L21.9084 14.6333C22.1314 13.7922 22.25 12.9093 22.25 11.9999H20.75ZM19.3362 16.064L21.483 15.1287L20.8838 13.7536L18.7371 14.6889L19.3362 16.064ZM19.1877 16.3214C19.1753 16.2123 19.2356 16.1079 19.3362 16.064L18.7371 14.6889C18.0326 14.9959 17.6108 15.7265 17.6972 16.49L19.1877 16.3214ZM19.4507 18.6451L19.1877 16.3214L17.6972 16.49L17.9602 18.8138L19.4507 18.6451ZM18.1761 18.1982C17.111 19.2595 15.7752 20.0473 14.2826 20.4494L14.6728 21.8978C16.4242 21.4259 17.9889 20.5022 19.2348 19.2608L18.1761 18.1982ZM14.9234 20.5704L13.0399 19.1789L12.1486 20.3853L14.0321 21.7768L14.9234 20.5704ZM13.0399 19.1789C12.4219 18.7223 11.5782 18.7223 10.9602 19.1789L11.8515 20.3853C11.9398 20.3201 12.0603 20.3201 12.1486 20.3853L13.0399 19.1789ZM10.9602 19.1789L9.0767 20.5704L9.96803 21.7768L11.8515 20.3853L10.9602 19.1789ZM9.71747 20.4494C8.22485 20.0473 6.88903 19.2595 5.82398 18.1982L4.76522 19.2608C6.01114 20.5023 7.57588 21.4259 9.32725 21.8978L9.71747 20.4494ZM6.03984 18.8139L6.30283 16.49L4.81235 16.3214L4.54936 18.6452L6.03984 18.8139ZM6.30283 16.49C6.38925 15.7265 5.96743 14.9959 5.26296 14.6889L4.66379 16.064C4.76444 16.1079 4.82469 16.2123 4.81235 16.3214L6.30283 16.49ZM5.26296 14.6889L3.11617 13.7535L2.51701 15.1287L4.66379 16.064L5.26296 14.6889ZM3.54154 14.2489C3.35149 13.5321 3.25 12.7784 3.25 11.9999H1.75C1.75 12.9093 1.86862 13.7922 2.09164 14.6333L3.54154 14.2489ZM3.25 11.9999C3.25 11.2215 3.35146 10.4679 3.54148 9.75112L2.09156 9.36675C1.86859 10.2078 1.75 11.0906 1.75 11.9999H3.25ZM3.1161 10.2465L5.26295 9.31109L4.66379 7.93596L2.51694 8.87136L3.1161 10.2465ZM5.26295 9.31109C5.96742 9.00415 6.38924 8.27354 6.30283 7.50997L4.81234 7.67866C4.82469 7.78773 4.76443 7.89211 4.66379 7.93596L5.26295 9.31109ZM6.30283 7.50997L6.03981 5.18593L4.54932 5.35461L4.81234 7.67866L6.30283 7.50997ZM5.82395 5.80155C6.88897 4.74031 8.22476 3.95252 9.71734 3.55036L9.3271 2.102C7.57577 2.57388 6.01108 3.49753 4.76518 4.739L5.82395 5.80155Z" fill="black"/>
<path d="M12 15C13.6569 15 15 13.6569 15 12C15 10.3431 13.6569 9 12 9C10.3431 9 9 10.3431 9 12C9 13.6569 10.3431 15 12 15Z" fill="white" stroke="black" stroke-width="1.5"/>
</svg>
